<?xml version="1.0" encoding="UTF-8" standalone="no"?>
<!-- Generator: Adobe Illustrator 16.0.0, SVG Export Plug-In . SVG Version: 6.00 Build 0)  -->

<svg
   xmlns:dc="http://purl.org/dc/elements/1.1/"
   xmlns:cc="http://creativecommons.org/ns#"
   xmlns:rdf="http://www.w3.org/1999/02/22-rdf-syntax-ns#"
   xmlns:svg="http://www.w3.org/2000/svg"
   xmlns="http://www.w3.org/2000/svg"
   xmlns:sodipodi="http://sodipodi.sourceforge.net/DTD/sodipodi-0.dtd"
   xmlns:inkscape="http://www.inkscape.org/namespaces/inkscape"
   version="1.1"
   id="Layer_1"
   x="0px"
   y="0px"
   width="78px"
   height="105px"
   viewBox="0 0 78 105"
   enable-background="new 0 0 78 105"
   xml:space="preserve"
   inkscape:version="0.91 r13725"
   sodipodi:docname="78x105-15.svg"
   inkscape:export-filename="C:\Users\altinu\Desktop\78x105\78x105-15.png"
   inkscape:export-xdpi="90"
   inkscape:export-ydpi="90"><metadata
     id="metadata13"><rdf:RDF><cc:Work
         rdf:about=""><dc:format>image/svg+xml</dc:format><dc:type
           rdf:resource="http://purl.org/dc/dcmitype/StillImage" /></cc:Work></rdf:RDF></metadata><defs
     id="defs11" /><sodipodi:namedview
     pagecolor="#ffffff"
     bordercolor="#666666"
     borderopacity="1"
     objecttolerance="10"
     gridtolerance="10"
     guidetolerance="10"
     inkscape:pageopacity="0"
     inkscape:pageshadow="2"
     inkscape:window-width="656"
     inkscape:window-height="480"
     id="namedview9"
     showgrid="false"
     inkscape:zoom="2.247619"
     inkscape:cx="39"
     inkscape:cy="52.5"
     inkscape:window-x="0"
     inkscape:window-y="0"
     inkscape:window-maximized="0"
     inkscape:current-layer="Layer_1" /><g
     id="g4141"
     transform="translate(-0.17617728,-0.60832099)"><path
       id="path3"
       d="M 11.868,19.495 C -3.194,34.56 -3.212,58.964 11.805,74.053 l 0,0 0.033,0.032 c 0.012,0.011 0.02,0.016 0.029,0.024 0.011,0.015 0.018,0.024 0.023,0.029 L 33.287,95.57 c 3.252,3.248 8.499,3.285 11.711,0.062 L 66.481,74.11 C 81.567,59.021 81.567,34.58 66.481,19.496 51.403,4.42 26.949,4.42 11.868,19.495 Z"
       inkscape:connector-curvature="0"
       style="fill:#ffce00" /><g
       id="g5"><path
         id="path7"
         d="m 39.177,28.358 c -10.931,0 -19.821,8.895 -19.821,19.82 C 19.355,59.11 28.246,68 39.177,68 50.104,68 58.998,59.11 58.998,48.179 58.998,37.253 50.104,28.358 39.177,28.358 l 0,0 z M 50.224,41.571 38.028,55.289 c -0.3,0.337 -0.721,0.514 -1.14,0.514 -0.337,0 -0.67,-0.111 -0.955,-0.335 L 28.31,49.369 c -0.656,-0.523 -0.763,-1.483 -0.232,-2.144 0.521,-0.657 1.484,-0.762 2.139,-0.236 l 6.492,5.192 11.237,-12.641 c 0.557,-0.63 1.521,-0.687 2.151,-0.127 0.629,0.565 0.69,1.525 0.127,2.158 l 0,0 z m 0,0"
         inkscape:connector-curvature="0"
         style="fill:#ffffff" /></g></g></svg>